<?xml version="1.0" encoding="UTF-8" standalone="no"?>
<!DOCTYPE svg PUBLIC "-//W3C//DTD SVG 1.1//EN" "http://www.w3.org/Graphics/SVG/1.1/DTD/svg11.dtd">
<svg width="100%" height="100%" viewBox="0 0 100 100" version="1.1" xmlns="http://www.w3.org/2000/svg" xmlns:xlink="http://www.w3.org/1999/xlink" xml:space="preserve" xmlns:serif="http://www.serif.com/" style="fill-rule:evenodd;clip-rule:evenodd;stroke-linejoin:round;stroke-miterlimit:1.41421;">
    <g transform="matrix(1.16891,0,0,1.16891,-17.086,-7.10465)">
        <g transform="matrix(-0.46875,-0.811899,0.714822,-0.412703,44.485,127.778)">
            <path d="M59,12.086C59,7.071 55.415,3 51,3C46.585,3 43,7.071 43,12.086L43,90.914C43,95.929 46.585,100 51,100C55.415,100 59,95.929 59,90.914L59,12.086Z" style="fill:rgb(31,31,31);"/>
        </g>
        <g transform="matrix(0.46875,-0.811899,0.714822,0.412703,-3.32748,52.742)">
            <path d="M59,12.086C59,7.071 55.415,3 51,3C46.585,3 43,7.071 43,12.086L43,90.914C43,95.929 46.585,100 51,100C55.415,100 59,95.929 59,90.914L59,12.086Z" style="fill:rgb(31,31,31);"/>
        </g>
    </g>
</svg>
