<?xml version="1.0" encoding="UTF-8" standalone="no"?>
<!DOCTYPE svg PUBLIC "-//W3C//DTD SVG 1.1//EN" "http://www.w3.org/Graphics/SVG/1.1/DTD/svg11.dtd">
<svg width="100%" height="100%" viewBox="0 0 100 100" version="1.1" xmlns="http://www.w3.org/2000/svg" xmlns:xlink="http://www.w3.org/1999/xlink" xml:space="preserve" xmlns:serif="http://www.serif.com/" style="fill-rule:evenodd;clip-rule:evenodd;stroke-linejoin:round;stroke-miterlimit:1.41421;">
    <g transform="matrix(0.990445,0,0,0.990445,0.15157,0.15157)">
        <g transform="matrix(0.662913,-0.662913,0.969609,0.969609,-33.4141,34.203)">
            <path d="M59,8.47C59,5.451 55.415,3 51,3C46.585,3 43,5.451 43,8.47L43,94.53C43,97.549 46.585,100 51,100C55.415,100 59,97.549 59,94.53L59,8.47Z" style="fill:rgb(31,31,31);"/>
        </g>
        <g transform="matrix(-0.662913,-0.662913,0.969609,-0.969609,34.203,134.073)">
            <path d="M59,8.47C59,5.451 55.415,3 51,3C46.585,3 43,5.451 43,8.47L43,94.53C43,97.549 46.585,100 51,100C55.415,100 59,97.549 59,94.53L59,8.47Z" style="fill:rgb(31,31,31);"/>
        </g>
    </g>
</svg>
