<?xml version="1.0" encoding="UTF-8" standalone="no"?>
<!DOCTYPE svg PUBLIC "-//W3C//DTD SVG 1.1//EN" "http://www.w3.org/Graphics/SVG/1.1/DTD/svg11.dtd">
<svg width="100%" height="100%" viewBox="0 0 500 500" version="1.1" xmlns="http://www.w3.org/2000/svg" xmlns:xlink="http://www.w3.org/1999/xlink" xml:space="preserve" xmlns:serif="http://www.serif.com/" style="fill-rule:evenodd;clip-rule:evenodd;stroke-linejoin:round;stroke-miterlimit:1.41421;">
    <g id="Fill-13" transform="matrix(2.88665,0,0,2.88684,-67.9642,-820.15)">
        <path d="M68.6,353.1C74.3,328.4 93.5,318.6 112,318.6C136,318.6 148.7,330.1 152,353.1L68.6,353.1ZM112,284.1C63.6,284.1 25.9,319 25.9,369.1C25.9,422.8 63.5,457.3 112,457.3C143.5,457.3 172.7,447.2 188.2,416.9C189.6,414.1 188.7,412.3 185.8,410.9L159,399C156.2,397.8 154.3,398.5 152.9,401.3C145.8,415.1 130.8,421.5 112,421.5C96,421.5 79.6,414.2 71.7,395.6C69.1,388 71.5,383.4 80.1,383.4L189.7,383.4C192.5,383.4 194.4,381.6 194.4,378.8L194.4,373.3C194.3,318.1 162.3,284.1 112,284.1Z" style="fill:rgb(125,194,64);fill-rule:nonzero;"/>
    </g>
</svg>
